# xmcd CD database file
#
# Track frame offsets:
#	225
#	65496
#	146034
#	197402
#	231966
#	265172
#
# Disc length: 4444 seconds
#
# Revision: 0
# Processed by: cddbd v1.5.2PL0 Copyright (c) Steve Scherf et al.
# Submitted via: CDex 1.70beta2
#
DISCID=55115906
DTITLE=Rob Blakeslee - Spirit Of The Times
DYEAR=1998
DGENRE=Jazz
TTITLE0=Just Off The Avenue (for Bobby Bradford)
TTITLE1=A Trusty Shellback
TTITLE2=Colorful Ears
TTITLE3=Squirrels
TTITLE4=Slaybell
TTITLE5=Indecent Response
EXTD=YEAR: 1998
EXTT0=
EXTT1=
EXTT2=
EXTT3=
EXTT4=
EXTT5=
PLAYORDER=
